<svg id="Layer_1" height="512" viewBox="0 0 512 512" width="512" xmlns="http://www.w3.org/2000/svg" data-name="Layer 1"><path d="m394.417 198.1 79.9 11.23a5.931 5.931 0 0 0 .837.059 6 6 0 0 0 4.368-10.112l-114.795-121.977a6 6 0 0 0 -8.612-.13l-92.808 92.8a5.949 5.949 0 0 0 -1.087 6.99l42.12 81.719-230.572-117.485a6 6 0 0 0 -8.463 7.1l36.512 119.706h-85.817a5.679 5.679 0 0 0 -5.53 3.3 5.4 5.4 0 0 0 1.239 6.146l154.391 158.247c1.128 1.156 2.675 2.307 4.291 2.307h228.609a6 6 0 0 0 5.932-5.141l95.681-115.08a6 6 0 0 0 -.259-7.964zm-34.19-108.076 98.854 105.043-178.781-25.128zm-279.327 68.276 215.308 109.7h-181.845zm92.018 267.7-142.666-146h285.076l75.252 146zm227.7-6.72-122.425-237.52 97.144 13.655 112.642 118.79z"/><path d="m86.457 296h-1.946a6 6 0 1 0 0 12h1.946a6 6 0 0 0 0-12z"/><path d="m192.245 296h-86.286a6 6 0 0 0 0 12h86.286a6 6 0 0 0 0-12z"/></svg>